<svg xmlns="http://www.w3.org/2000/svg" viewBox="0 0 360 360" fill="none">
  <g>
    <path
      d="M123 253C123 244 129 238 138 238H154C162 238 168 244 168 253C168 261 162 267 154 267H138C129 267 123 261 123 253Z"
      fill="#6A2E1C"
    />
    <path
      d="M192 253C192 244 198 238 207 238H223C232 238 238 244 238 253C238 261 232 267 223 267H207C198 267 192 261 192 253Z"
      fill="#6A2E1C"
    />
    <path
      d="M109 256L165 104C169 93 178 87 190 87H205C216 87 225 92 230 102L284 255C289 270 279 285 264 285H236C226 285 218 280 214 271L207 251H167L160 271C156 280 149 285 138 285H129C113 285 103 270 109 256Z"
      fill="#6A2E1C"
    />
    <path
      d="M94 244L150 92C154 81 163 75 174 75H189C200 75 209 80 214 90L268 243C273 258 263 273 248 273H220C210 273 202 268 198 259L192 240H154L147 259C143 268 135 273 125 273H114C98 273 88 258 94 244Z"
      fill="#FF5A3D"
    />
    <path
      d="M173 219L186 180C189 171 192 161 196 150H197C201 161 204 171 207 180L220 219H173Z"
      fill="#6A2E1C"
    />
    <path
      d="M145 143L123 101C119 93 122 84 130 80C138 76 147 79 151 87L173 129C177 137 174 146 166 150C158 154 149 151 145 143Z"
      fill="#FFB33A"
    />
    <path
      d="M205 108L218 69C221 60 230 55 239 58C248 61 253 70 250 79L237 119C234 128 225 133 216 130C207 127 202 118 205 108Z"
      fill="#FFB33A"
    />
  </g>
</svg>
